PathFileType	4	(X/Y/Z)	/Users/itak/Documents/Research/Walk-IL/dataset/trc/00315_00010.trc
DataRate	CameraRate	NumFrames	NumMarkers	Units	OrigDataRate	OrigDataStartFrame	OrigNumFrames
100.000000	100.000000	4	53	mm	100.000000	469	537
Frame#	Time	RPSI			LPSI			L3			STRN			T10			C7			CLAV			RBAK			LBAK			LSHO			LUPA			LAEL			LAOL			LWTS			LWPS			LFRA			LIFD			LHPS			LHTS			RSHO			RUPA			RAEL			RAOL			RWTS			RWPS			RFRA			RIFD			RHTS			RHPS			RBHD			LFHD			RFHD			LBHD			LHIP			RHIP			RASI			LASI			LKNE			LTHI			LANK			LTIP			LTOE			LMT1			LMT5			LHEE			RKNE			RTHI			RANK			RTIP			RTOE			RMT1			RMT5			RHEE			
		X1	Y1	Z1	X2	Y2	Z2	X3	Y3	Z3	X4	Y4	Z4	X5	Y5	Z5	X6	Y6	Z6	X7	Y7	Z7	X8	Y8	Z8	X9	Y9	Z9	X10	Y10	Z10	X11	Y11	Z11	X12	Y12	Z12	X13	Y13	Z13	X14	Y14	Z14	X15	Y15	Z15	X16	Y16	Z16	X17	Y17	Z17	X18	Y18	Z18	X19	Y19	Z19	X20	Y20	Z20	X21	Y21	Z21	X22	Y22	Z22	X23	Y23	Z23	X24	Y24	Z24	X25	Y25	Z25	X26	Y26	Z26	X27	Y27	Z27	X28	Y28	Z28	X29	Y29	Z29	X30	Y30	Z30	X31	Y31	Z31	X32	Y32	Z32	X33	Y33	Z33	X34	Y34	Z34	X35	Y35	Z35	X36	Y36	Z36	X37	Y37	Z37	X38	Y38	Z38	X39	Y39	Z39	X40	Y40	Z40	X41	Y41	Z41	X42	Y42	Z42	X43	Y43	Z43	X44	Y44	Z44	X45	Y45	Z45	X46	Y46	Z46	X47	Y47	Z47	X48	Y48	Z48	X49	Y49	Z49	X50	Y50	Z50	X51	Y51	Z51	X52	Y52	Z52	X53	Y53	Z53	

470	4.69	321.5993041992188	1009.276489257812	705.6287231445312	495.7446594238281	998.75390625	710.962158203125	411.5715637207031	1070.135986328125	722.8992919921875	417.5029296875	1250.11181640625	975.243408203125	412.0075988769531	1184.492553710938	710.3004760742188	429.1462097167969	1431.605712890625	753.1284790039062	422.9268493652344	1349.499633789062	910.9893798828125	351.4145202636719	1292.84375	700.6145629882812	533.5747680664062	1392.79833984375	739.9747924804688	586.1553955078125	1400.733032226562	829.9757080078125	661.654296875	1284.899658203125	798.745849609375	673.1864624023438	1081.574829101562	786.639404296875	601.171630859375	1070.02392578125	739.4029541015625	649.7754516601562	848.6268920898438	850.0382080078125	699.2692260742188	843.085205078125	798.1201171875	686.3135986328125	976.7117919921875	786.5895385742188	654.0873413085938	664.662109375	825.8204345703125	697.1102905273438	755.3812255859375	790.1596069335938	674.1084594726562	749.1002197265625	851.5283203125	270.7451171875	1407.189331054688	819.0227661132812	204.3175201416016	1348.323974609375	815.2990112304688	136.0518035888672	1087.282470703125	831.027587890625	224.6315155029297	1068.207397460938	800.4252319335938	173.7000579833984	887.4889526367188	976.1605224609375	100.4772186279297	876.29443359375	930.3564453125	118.9824066162109	1025.0771484375	865.7742309570312	155.1775817871094	706.480712890625	1025.637817382812	145.1095733642578	783.0321655273438	1029.986938476562	94.58557891845703	774.9384155273438	978.474365234375	358.5038452148438	1575.316528320312	753.6703491210938	466.1526184082031	1650.277221679688	922.584716796875	373.2249755859375	1644.941284179688	914.8002319335938	504.3865051269531	1574.048095703125	768.2545776367188	589.2711181640625	949.7282104492188	781.3867797851562	218.9835815429688	954.0679321289062	802.0551147460938	284.8175964355469	958.0517578125	925.1943969726562	537.2974243164062	959.3975219726562	918.7723999023438	567.3892211914062	487.0276489257812	858.5859985351562	586.9658813476562	628.760009765625	845.9871826171875	557.8485107421875	49.5490837097168	745.10498046875	571.8818359375	261.6169738769531	798.1824951171875	471.2768859863281	36.8255729675293	943.2393188476562	442.8231201171875	30.24935531616211	865.3123779296875	554.6875610351562	41.26308822631836	869.9622192382812	502.9071350097656	46.86657333374023	692.74755859375	255.6760711669922	481.7939147949219	807.7275390625	220.4623718261719	743.5736694335938	851.2232055664062	286.8192138671875	40.22979354858398	771.2035522460938	267.14111328125	363.888916015625	815.985595703125	326.1615295410156	45.30661392211914	969.436767578125	368.6751708984375	41.36146545410156	914.33203125	258.0256958007812	33.63705825805664	874.1559448242188	339.5244445800781	34.51924514770508	722.4500122070312	
471	4.7	321.5761413574219	1009.240295410156	706.1292724609375	495.720947265625	998.9326782226562	711.5570678710938	411.4601440429688	1069.986938476562	723.349853515625	417.3369445800781	1250.165405273438	975.6453857421875	411.6807250976562	1184.411987304688	710.7523803710938	428.7901000976562	1431.558959960938	753.47900390625	422.7458190917969	1349.52197265625	911.3463134765625	351.0434265136719	1292.811767578125	701.211181640625	533.1796264648438	1392.706420898438	740.15869140625	585.89990234375	1400.682373046875	830.0516357421875	661.268798828125	1284.871704101562	798.6614379882812	673.1909790039062	1081.597778320312	786.8294677734375	601.125732421875	1069.88916015625	739.7265625	650.2177124023438	848.8917236328125	851.0081176757812	699.7288208007812	843.2576904296875	799.0846557617188	686.5018310546875	976.7572631835938	787.0505981445312	655.2860107421875	664.8198852539062	827.8314208984375	697.8903198242188	755.5264892578125	791.5938110351562	674.9608154296875	749.49609375	853.030517578125	270.4487609863281	1407.217651367188	819.5844116210938	204.1273498535156	1348.31103515625	815.9899291992188	136.0557861328125	1087.207397460938	831.5504150390625	224.4931182861328	1068.28173828125	800.5416870117188	174.7749633789062	887.4064331054688	976.3613891601562	101.3492126464844	876.1107788085938	930.9979248046875	119.2109985351562	1024.95703125	866.3143920898438	157.1097717285156	706.3551025390625	1025.928955078125	146.8174438476562	782.8609008789062	1030.2880859375	95.99796295166016	774.6015625	979.06982421875	358.26513671875	1575.379638671875	754.2455444335938	465.8762512207031	1650.193237304688	923.2337646484375	372.9216918945312	1644.75341796875	915.4380493164062	504.1221313476562	1574.190185546875	768.8028564453125	589.2788696289062	949.985107421875	782.032958984375	219.0214080810547	954.0887451171875	802.529296875	284.8124084472656	958.0191650390625	925.6970825195312	537.2846069335938	959.5767211914062	919.3801879882812	567.283203125	487.1467895507812	857.9801635742188	586.7346801757812	628.9174194335938	845.8148803710938	557.8301391601562	49.50362014770508	745.0493774414062	571.8622436523438	261.7630615234375	797.6693725585938	471.3184814453125	36.85967636108398	943.2439575195312	442.8465270996094	30.25443077087402	865.3088989257812	554.7092895507812	41.26891708374023	869.9537963867188	502.8751220703125	46.83148574829102	692.7153930664062	255.7942810058594	481.7628784179688	807.7216186523438	220.47119140625	743.458984375	851.5069580078125	286.9216613769531	40.35208892822266	771.2052612304688	267.3128967285156	363.885498046875	815.9389038085938	326.1988830566406	45.14206314086914	969.5208129882812	368.7364807128906	41.29119110107422	914.3853759765625	258.0872192382812	33.68285369873047	874.1546630859375	339.6591796875	34.54945373535156	722.4591064453125	
472	4.71	321.5663146972656	1009.202453613281	706.6468505859375	495.7094116210938	999.087646484375	712.15673828125	411.3414306640625	1069.759643554688	723.9603271484375	417.2006530761719	1250.230590820312	976.0257568359375	411.3685913085938	1184.306030273438	711.20556640625	428.4586486816406	1431.4951171875	753.801025390625	422.5929260253906	1349.556396484375	911.6797485351562	350.6804504394531	1292.768310546875	701.8123779296875	532.8005981445312	1392.58642578125	740.3081665039062	585.6798706054688	1400.617065429688	830.0770263671875	660.860107421875	1284.787109375	798.5816040039062	673.1551513671875	1081.562133789062	787.2042236328125	601.0188598632812	1069.663452148438	740.2775268554688	650.610595703125	849.0927734375	852.2672119140625	700.12744140625	843.35595703125	800.3209228515625	686.6392822265625	976.7415161132812	787.7561645507812	656.2714233398438	664.9308471679688	830.002685546875	698.5408935546875	755.6036987304688	793.2510375976562	675.6796875	749.7987670898438	854.7529296875	270.1611328125	1407.251220703125	820.1246948242188	203.9552307128906	1348.313720703125	816.6486206054688	136.0755767822266	1087.154296875	831.903076171875	224.3607330322266	1068.388427734375	800.4786376953125	175.9866943359375	887.3146362304688	976.3382568359375	102.3271331787109	875.9064331054688	931.456298828125	119.4913711547852	1024.838256835938	866.6980590820312	159.2403411865234	706.2062377929688	1025.98486328125	148.7130126953125	782.6554565429688	1030.346801757812	97.56602478027344	774.239990234375	979.4620361328125	358.0536193847656	1575.450561523438	754.7816162109375	465.6459045410156	1650.095336914062	923.860107421875	372.6755065917969	1644.55322265625	916.0568237304688	503.8882751464844	1574.325439453125	769.322509765625	589.2952270507812	950.20849609375	782.681884765625	219.0731964111328	954.126953125	803.0084228515625	284.8211975097656	958.0040893554688	926.2047119140625	537.3125	959.7452392578125	919.9940185546875	567.1921997070312	487.2572021484375	857.3652954101562	586.5048217773438	629.0604248046875	845.6333618164062	557.825927734375	49.44809722900391	744.9945068359375	571.8401489257812	261.8880004882812	797.175048828125	471.3493957519531	36.88930892944336	943.2390747070312	442.8702087402344	30.25699996948242	865.2976684570312	554.7283325195312	41.27267456054688	869.9454345703125	502.8638000488281	46.78820419311523	692.6856079101562	255.9135437011719	481.7428283691406	807.7015380859375	220.5177917480469	743.3480224609375	851.7899780273438	287.0279846191406	40.4682502746582	771.2125854492188	267.4792175292969	363.8909606933594	815.8727416992188	326.2204284667969	44.99707412719727	969.5911254882812	368.7954406738281	41.23360443115234	914.44482421875	258.1410522460938	33.72137832641602	874.1514892578125	339.7877807617188	34.57779312133789	722.4662475585938	
473	4.72	321.5711364746094	1009.169677734375	707.1819458007812	495.7112731933594	999.2247924804688	712.7610473632812	411.2108764648438	1069.462768554688	724.72998046875	417.091796875	1250.304931640625	976.3861083984375	411.0726623535156	1184.1767578125	711.6629028320312	428.1543579101562	1431.41455078125	754.0957641601562	422.4634399414062	1349.599975585938	911.99169921875	350.3280639648438	1292.714477539062	702.408447265625	532.4412231445312	1392.441040039062	740.4296875	585.4908447265625	1400.536499023438	830.0631713867188	660.438720703125	1284.647583007812	798.5303955078125	673.0868530273438	1081.46875	787.7699584960938	600.8768920898438	1069.358642578125	741.0330810546875	650.9497680664062	849.235107421875	853.8047485351562	700.4622192382812	843.38037109375	801.8199462890625	686.729736328125	976.6652221679688	788.7046508789062	657.0431518554688	664.9957885742188	832.3478393554688	699.05908203125	755.610595703125	795.13134765625	676.2635498046875	750.0147705078125	856.6976928710938	269.8837280273438	1407.285766601562	820.642578125	203.7938385009766	1348.32861328125	817.26806640625	136.1139221191406	1087.116333007812	832.097412109375	224.2386474609375	1068.522338867188	800.2509155273438	177.3245239257812	887.2135620117188	976.1053466796875	103.4003143310547	875.6718139648438	931.7276000976562	119.8231964111328	1024.713012695312	866.9322509765625	161.5472106933594	706.0313720703125	1025.814453125	150.7716979980469	782.4088134765625	1030.166381835938	99.2750244140625	773.8507690429688	979.6476440429688	357.8711242675781	1575.528686523438	755.2799072265625	465.4651489257812	1649.983764648438	924.4620971679688	372.4906311035156	1644.349243164062	916.6577758789062	503.6859130859375	1574.452270507812	769.8120727539062	589.3263549804688	950.405029296875	783.3160400390625	219.1287994384766	954.1759643554688	803.4901733398438	284.8337707519531	957.999755859375	926.7149658203125	537.3732299804688	959.8992919921875	920.613037109375	567.1116943359375	487.3574523925781	856.7464599609375	586.2763061523438	629.188232421875	845.4462890625	557.8333740234375	49.38531112670898	744.941162109375	571.81005859375	261.9888916015625	796.7019653320312	471.3699340820312	36.91376113891602	943.2260131835938	442.8930053710938	30.25711250305176	865.2794189453125	554.7442626953125	41.27484893798828	869.9376220703125	502.8693237304688	46.73849105834961	692.6576538085938	256.0316467285156	481.7340393066406	807.6700439453125	220.5938110351562	743.2430419921875	852.0692749023438	287.1375122070312	40.57629013061523	771.2261352539062	267.6360168457031	363.9049377441406	815.7919921875	326.2279968261719	44.87303161621094	969.6475830078125	368.8505249023438	41.18771362304688	914.5094604492188	258.1875	33.75303649902344	874.1475219726562	339.908935546875	34.60437774658203	722.4714965820312	
